# xmcd CD database file
#
# Track frame offsets:
#	150
#	13912
#	30171
#	41495
#	55728
#	70798
#	87130
#	100241
#	113544
#	128375
#	142893
#	158610
#	170019
#	186940
#
# Disc length: 2700 seconds
#
# Revision: 0
# Processed by: cddbd v1.5.2PL0 Copyright (c) Steve Scherf et al.
# Submitted via: CDex 1.70beta2
#
DISCID=a30a8a0e
DTITLE=DeLon - Traditional Country
DYEAR=1997
DGENRE=Country
TTITLE0=Crazy Country Boy
TTITLE1=High School Days
TTITLE2=He'll Have To Go
TTITLE3=45 - Caliber Woman
TTITLE4=Make The World Go Away
TTITLE5=I'm Yours Now And You Belong To Me
TTITLE6=I Love Howe You Love Me
TTITLE7=When I Moved Out Of Tulsa
TTITLE8=Four Walls
TTITLE9=Hold On To Each Other
TTITLE10=Melp Me Make It Through The Night
TTITLE11=Chalk On The Blackboard
TTITLE12=I'll Get By
TTITLE13=What Condition Is Out Country In
EXTD=YEAR: 1997
EXTT0=
EXTT1=
EXTT2=
EXTT3=
EXTT4=
EXTT5=
EXTT6=
EXTT7=
EXTT8=
EXTT9=
EXTT10=
EXTT11=
EXTT12=
EXTT13=
PLAYORDER=
